<?xml version="1.0" encoding="UTF-8" standalone="no"?>
<!-- Created with Inkscape (http://www.inkscape.org/) -->

<svg
   version="1.1"
   id="svg1"
   width="512"
   height="512"
   viewBox="0 0 512 512"
   xmlns="http://www.w3.org/2000/svg"
   xmlns:svg="http://www.w3.org/2000/svg">
  <defs
     id="defs1" />
  <g
     id="g1">
    <path
       style="fill:#8a8a8a;fill-opacity:1"
       d="m 136,338.80306 c -14.025,-0.0565 -26.85,-0.28942 -28.5,-0.51761 -1.65,-0.22818 -5.7,-1.09738 -9,-1.93154 -3.3,-0.83416 -9.653475,-3.22319 -14.118833,-5.30895 C 79.91581,328.9592 73.56324,325.41975 70.264347,323.17951 66.965453,320.93928 61.482497,316.3225 58.08,312.92 c -3.402497,-3.4025 -7.900841,-8.71393 -9.996319,-11.80318 -2.095479,-3.08925 -5.217444,-8.40836 -6.9377,-11.82023 -1.720256,-3.41188 -4.287601,-10.16188 -5.705211,-15 -1.758835,-6.00268 -2.753337,-12.29033 -3.13118,-19.79659 -0.408757,-8.12043 -0.108536,-13.35601 1.14685,-20 0.935306,-4.95 2.973029,-12.27779 4.528274,-16.28397 1.555245,-4.00619 4.730808,-10.48735 7.056807,-14.40258 2.325999,-3.91524 7.637163,-10.6858 11.802585,-15.0457 4.165423,-4.3599 10.930248,-10.13077 15.032945,-12.82415 4.102696,-2.69338 10.863254,-6.31406 15.02346,-8.04596 4.160207,-1.73189 11.621994,-3.98646 16.581749,-5.01013 6.00422,-1.23926 13.27849,-1.86563 21.76774,-1.87437 L 138,161 v 10.38953 c 0,5.71424 0.69663,14.06188 1.54807,18.55031 0.85144,4.48842 2.46699,11.17563 3.59011,14.86046 1.12313,3.68484 4.01432,10.7497 6.42488,15.6997 2.41056,4.95 5.77777,10.6875 7.48269,12.75 2.44382,2.95637 3.80172,3.75 6.41627,3.75 1.82403,0 4.35626,-0.84202 5.6272,-1.87116 1.61704,-1.3094 2.29556,-2.88555 2.26008,-5.25 -0.0315,-2.10125 -1.60983,-6.0029 -4.17412,-10.31868 -2.26788,-3.81691 -5.46477,-10.64684 -7.10419,-15.17762 -1.63943,-4.53078 -3.73146,-11.94252 -4.64895,-16.47055 -1.27322,-6.28355 -1.54731,-11.45028 -1.15767,-21.82238 0.37786,-10.05829 1.17152,-16.11171 3.05426,-23.29542 1.39906,-5.3382 4.31786,-13.49167 6.48623,-18.11883 2.16836,-4.62717 5.8792,-11.28455 8.24631,-14.79419 2.36712,-3.50964 7.48647,-9.56379 11.37634,-13.453661 3.88987,-3.88987 9.94402,-9.009221 13.45366,-11.376335 3.50964,-2.367115 10.16702,-6.077958 14.79419,-8.246319 4.62716,-2.168361 12.78063,-5.109085 18.11883,-6.534943 8.58486,-2.293059 11.61143,-2.59247 26.20581,-2.59247 14.59438,0 17.62095,0.299411 26.20581,2.59247 5.3382,1.425858 13.49167,4.366582 18.11883,6.534943 4.62717,2.168361 11.28455,5.874505 14.79419,8.235876 3.50964,2.36137 9.56984,7.509194 13.4671,11.439607 3.89727,3.930412 9.01662,9.989262 11.37634,13.464102 2.35972,3.47484 6.0063,9.97954 8.10352,14.45488 2.09721,4.47534 4.72189,11.50381 5.8326,15.61883 1.11072,4.11502 2.53416,10.51935 3.1632,14.23185 l 1.14372,6.75 20.64734,0.0131 c 16.19788,0.0103 22.59066,0.41423 29.66509,1.87437 4.95975,1.02367 12.42154,3.27824 16.58175,5.01013 4.16021,1.7319 10.92076,5.35258 15.02346,8.04596 4.1027,2.69338 10.86752,8.46425 15.03294,12.82415 4.16543,4.3599 9.47659,11.13046 11.80259,15.0457 2.326,3.91523 5.50156,10.39639 7.05681,14.40258 1.55524,4.00618 3.59296,11.33397 4.52827,16.28397 1.25539,6.64399 1.55561,11.87957 1.14685,20 -0.3809,7.5669 -1.37207,13.7935 -3.17583,19.95066 -1.44216,4.92286 -4.39163,12.35187 -6.55436,16.50891 -2.16273,4.15704 -6.42895,10.70425 -9.48049,14.54935 -3.05155,3.84509 -8.34534,9.37897 -11.764,12.29749 -3.41865,2.91853 -8.69015,6.74353 -11.71444,8.5 -3.02429,1.75648 -8.34181,4.4249 -11.8167,5.92982 -3.47489,1.50493 -8.87547,3.48825 -12.00129,4.40737 -4.70571,1.38368 -11.8685,1.74364 -41.64133,2.09264 l -35.95803,0.42149 7.47659,-7.82886 c 5.09762,-5.33781 7.86842,-9.13854 8.70803,-11.94489 0.67729,-2.26381 1.23144,-6.21576 1.23144,-8.78212 0,-2.56635 -0.61871,-6.14687 -1.3749,-7.95671 -0.7562,-1.80983 -2.8937,-5.02043 -4.75,-7.13467 -1.85631,-2.11424 -5.4001,-4.74045 -7.8751,-5.83603 -3.68972,-1.63329 -6.43568,-1.96167 -15.25,-1.82368 -5.9125,0.0926 -10.75,-0.0569 -10.75,-0.33215 0,-0.27523 4.81952,-13.21702 10.71005,-28.75952 9.10196,-24.01604 10.70266,-29.10025 10.6608,-33.86121 -0.0324,-3.68285 -0.8203,-7.19488 -2.29984,-10.25121 -1.23783,-2.55701 -3.89769,-6.01401 -5.9108,-7.68224 -2.01312,-1.66823 -6.0662,-3.73726 -9.00685,-4.59784 -3.34491,-0.9789 -6.90335,-1.33126 -9.50464,-0.94117 -2.2869,0.34294 -6.40591,1.93912 -9.15336,3.54707 -3.20233,1.87417 -28.68538,26.43584 -70.99536,68.42842 l -66,65.50487 z"
       id="path2" />
    <path
       style="fill:#4caf50;fill-opacity:1"
       d="m 201.32668,445 c -2.7792,0 -4.58821,-0.6315 -5.87169,-2.04974 -1.0274,-1.13526 -1.83345,-3.47752 -1.80671,-5.25 0.0266,-1.76014 6.62033,-20.50899 14.65283,-41.6641 8.0325,-21.15511 14.51327,-38.51198 14.40172,-38.57082 -0.11156,-0.0588 -9.53865,0.31525 -20.9491,0.8313 -18.50845,0.83706 -21.01462,0.76244 -23.23412,-0.69183 -1.36832,-0.89656 -2.76878,-2.74942 -3.11214,-4.11746 -0.34336,-1.36804 -0.36476,-3.49985 -0.0476,-4.73735 0.3172,-1.2375 29.88288,-31.05 65.70153,-66.25 42.41634,-41.68375 66.15548,-64.31686 68.08064,-64.9087 2.34558,-0.72109 3.50048,-0.50207 5.59383,1.06085 1.4509,1.08325 3.02019,3.11611 3.48731,4.51748 0.68838,2.06513 -1.97031,10.01213 -14.03082,41.93915 l -14.8801,39.39122 3.59387,0.26938 c 1.97663,0.14816 11.01887,-0.10528 20.09387,-0.56321 9.075,-0.45792 17.58833,-0.44895 18.9185,0.0199 1.33018,0.46888 3.00337,1.62233 3.7182,2.5632 0.71483,0.94088 1.314,3.11117 1.3315,4.82286 0.0284,2.77552 -3.56448,6.66982 -33.21323,36 C 285.4702,365.70048 255.84746,395.0125 237.92666,412.75 206.02765,444.32274 205.25904,445 201.32668,445 Z"
       id="path1" />
  </g>
</svg>
