<?xml version="1.0" encoding="UTF-8" standalone="no"?>
<!-- Created with Inkscape (http://www.inkscape.org/) -->

<svg
   version="1.1"
   id="svg1"
   width="150"
   height="150"
   viewBox="0 0 150 150"
   xmlns="http://www.w3.org/2000/svg"
   xmlns:svg="http://www.w3.org/2000/svg">
  <defs
     id="defs1" />
  <g
     id="g1">
    <path
       style="fill:#000000;stroke-width:0.195373"
       d="m 53.084783,124.62796 c -0.81149,-0.42843 -1.52223,-1.59418 -1.50655,-2.47102 0.005,-0.29978 2.4514,-10.34789 5.43563,-22.329133 l 5.42588,-21.784074 -7.4382,-0.09769 c -7.30406,-0.09592 -7.44921,-0.105545 -8.04907,-0.533429 -0.67438,-0.481033 -1.24517,-1.511979 -1.24517,-2.248984 0,-0.783705 11.68831,-47.651946 12.10643,-48.544801 0.26879,-0.57399 0.62167,-0.94379 1.1652,-1.221081 0.76769,-0.391648 1.0585,-0.397747 18.96489,-0.397747 17.84021,0 18.19988,0.0075 18.95632,0.393375 0.89356,0.455856 1.55783,1.57427 1.55783,2.622845 0,0.514255 -1.99207,4.673006 -7.91166,16.51679 l -7.91167,15.829478 h 9.67781 c 9.313807,0 9.706797,0.01479 10.448877,0.393376 1.3375,0.682343 1.92416,2.43433 1.25102,3.736035 -0.16874,0.326313 -10.895747,13.883266 -23.837797,30.126562 -16.66687,20.918248 -23.74403,29.660558 -24.26133,29.969638 -0.89605,0.53539 -1.86403,0.54903 -2.82844,0.0399 z m 25.1289,-36.954519 c 9.30762,-11.681562 16.92295,-21.286581 16.92295,-21.344485 0,-0.0579 -4.00376,-0.105281 -8.89724,-0.105281 -8.53152,0 -8.92895,-0.01617 -9.66833,-0.393375 -0.89355,-0.455856 -1.55783,-1.57427 -1.55783,-2.622846 0,-0.514255 1.99222,-4.673307 7.91231,-16.518074 l 7.9123,-15.830762 -14.11141,0.05013 -14.1114,0.05013 -5.09757,20.51415 -5.09756,20.51415 7.43805,0.09769 c 6.89613,0.09057 7.47802,0.124771 7.98658,0.469432 0.63337,0.429248 1.30751,1.638467 1.30751,2.34532 0,0.267214 -1.89023,8.062224 -4.20051,17.322243 -2.31029,9.260017 -4.20052,16.932367 -4.20052,17.049677 0,0.11898 0.11931,0.0868 0.26986,-0.0728 0.14842,-0.15735 7.88519,-9.843726 17.19281,-21.525288 z"
       id="path1" />
  </g>
</svg>
