<?xml version="1.0" encoding="UTF-8" standalone="no"?>
<!-- Created with Inkscape (http://www.inkscape.org/) -->

<svg
   version="1.1"
   id="svg1"
   width="150"
   height="150"
   viewBox="0 0 150 150"
   xmlns="http://www.w3.org/2000/svg"
   xmlns:svg="http://www.w3.org/2000/svg">
  <defs
     id="defs1" />
  <g
     id="g1"
     transform="translate(0,24.355962)">
    <path
       id="path1"
       style="fill:#8a8a8a;fill-opacity:1;stroke-width:0.146623"
       d="m 47.375104,53.724542 c -3.052745,0 -3.750879,0.225802 -4.363746,1.410957 -0.409225,0.791353 -12.213311,28.299263 -12.348675,28.777016 -0.109866,0.387758 0.234343,0.217586 20.799819,-10.293666 l 8.429378,-4.308477 -2.587949,-3.833956 c -2.411045,-3.57214 -5.362235,-8.335173 -6.64585,-10.725514 l -0.551268,-1.02636 z m 52.512153,0 -0.550981,1.02636 c -3.393903,6.320109 -10.5429,16.701428 -16.00508,23.241717 -2.288228,2.739871 -3.09326,3.458599 -4.698804,4.193641 -3.411164,1.561682 -7.288529,0.8106 -9.964335,-1.929865 -0.875928,-0.897093 -4.406021,-5.144176 -5.124926,-6.165889 -0.03862,-0.05489 -4.910952,2.445422 -5.154708,2.645223 -0.04908,0.04023 4.393399,4.559377 9.872411,10.042516 6.729444,6.73451 10.06578,9.943145 10.282211,9.888735 0.264663,-0.06654 37.701895,-19.415282 37.847295,-19.560684 0.0524,-0.05237 -8.99472,-21.172412 -9.43054,-22.015184 -0.15547,-0.300643 -0.58114,-0.731058 -0.94589,-0.956485 -0.59052,-0.364963 -0.96254,-0.410085 -3.39494,-0.410085 z m -47.203089,25.875773 -12.938603,6.598599 -12.938603,6.598598 -0.922693,2.114862 c -0.507455,1.163185 -0.92514,2.40432 -0.92842,2.758055 -0.009,0.971881 0.66943,2.125779 1.511188,2.570191 0.714916,0.37745 1.213218,0.38617 22.701333,0.39462 l 21.97051,0.009 0.707054,-0.42498 c 0.389024,-0.23372 0.747604,-0.456911 0.796688,-0.496285 0.04909,-0.03937 -4.421413,-4.583006 -9.934553,-10.096927 z m 66.080772,2.919569 -16.84988,8.736657 c -9.267433,4.80529 -17.113799,8.879689 -17.436369,9.054239 -0.544555,0.29468 0.80149,0.31805 18.824419,0.32532 19.07629,0.008 19.42413,0.001 20.1824,-0.38574 0.87309,-0.445417 1.55873,-1.570123 1.55873,-2.556735 0,-0.368523 -1.27329,-3.571658 -3.13951,-7.897011 z" />
    <path
       id="path6"
       style="fill:#4caf50;fill-opacity:1;stroke-width:0.146623"
       d="M 74.936442,0.64393875 C 73.012123,0.6398639 71.083058,0.75811238 69.870224,1.0001863 57.500332,3.4691367 49.389538,13.33934 48.626242,26.852478 c -0.263147,4.658674 0.222688,8.067101 1.845384,12.946334 2.769909,8.328743 8.792307,18.812721 16.91546,29.4477 3.609657,4.725827 5.506578,6.926886 6.330841,7.345172 1.958551,0.993896 2.737801,0.448151 6.940241,-4.860317 C 93.028933,56.104774 100.61287,41.306126 101.3506,31.353683 101.78672,25.470028 100.63763,19.516813 98.108858,14.558213 96.753235,11.900012 95.274569,9.9146759 93.050372,7.7663129 89.50232,4.3392335 85.147655,2.0930036 79.974023,1.0216643 78.780411,0.77449454 76.860761,0.6480136 74.936442,0.64393875 Z M 74.718799,18.208892 c 0.546354,-0.01736 1.097303,0.02064 1.645211,0.118558 5.302219,0.947559 8.588078,6.168694 7.03818,11.183711 -0.754653,2.441833 -2.298463,4.224647 -4.681047,5.404997 -1.337052,0.662386 -1.600209,0.721732 -3.421294,0.774352 -2.146216,0.06201 -3.140853,-0.17704 -4.810201,-1.156945 -3.217194,-1.888491 -4.931221,-5.8797 -4.090833,-9.525041 0.888075,-3.852206 4.495512,-6.678142 8.319984,-6.799632 z" />
  </g>
</svg>
