<?xml version="1.0" encoding="UTF-8" standalone="no"?>
<!-- Created with Inkscape (http://www.inkscape.org/) -->

<svg
   version="1.1"
   id="svg1"
   width="150"
   height="150"
   viewBox="0 0 150 150"
   xmlns="http://www.w3.org/2000/svg"
   xmlns:svg="http://www.w3.org/2000/svg">
  <defs
     id="defs1" />
  <g
     id="g1">
    <path
       style="fill:#4caf50;fill-opacity:1;stroke-width:0.240409"
       d="m 74.901442,124.99701 c -47.280877,-0.0128 -48.880206,-0.0278 -50.579302,-0.4729 -0.965016,-0.25282 -2.425503,-0.81119 -3.245525,-1.24083 -0.89228,-0.46749 -2.218194,-1.50839 -3.302107,-2.59231 -1.081915,-1.08191 -2.124873,-2.40995 -2.590303,-3.29834 -0.42853,-0.81795 -0.992856,-2.32279 -1.25406,-3.34408 -0.457607,-1.78923 -0.474915,-2.74478 -0.474915,-26.219978 0,-13.3997 0.051,-24.363089 0.113329,-24.363089 0.06233,0 2.223696,1.568748 4.803034,3.486105 l 4.689704,3.486105 0.06525,20.855329 0.06525,20.855338 0.570531,0.91772 c 0.313791,0.50474 1.009088,1.20794 1.545103,1.56266 l 0.974573,0.64494 h 48.700431 48.700435 l 0.91771,-0.57053 c 0.50475,-0.31379 1.20795,-1.00904 1.56266,-1.54499 l 0.64495,-0.97445 0.0652,-20.857778 0.0652,-20.857784 4.68561,-3.501332 c 2.57708,-1.925734 4.73845,-3.501333 4.80304,-3.501333 0.0646,0 0.11744,10.963389 0.11744,24.363089 0,23.475198 -0.0173,24.430748 -0.47491,26.219978 -0.26121,1.02129 -0.82554,2.52613 -1.25406,3.34408 -0.46543,0.88839 -1.50839,2.21643 -2.59031,3.29834 -1.08191,1.08192 -2.40995,2.12488 -3.29834,2.59031 -0.81795,0.42853 -2.32279,0.99285 -3.34408,1.25406 -1.82015,0.46551 -2.8234,0.47465 -50.681626,0.46167 z m -0.02165,-31.503948 c -1.057801,-0.009 -2.54191,-0.16646 -3.298021,-0.34976 -0.756109,-0.18331 -2.054319,-0.67611 -2.884911,-1.09512 -0.83059,-0.41902 -13.599745,-9.75277 -28.375899,-20.741674 L 13.45523,51.326677 v -6.754036 c 0,-5.939116 0.0573,-6.978084 0.474915,-8.610936 0.261204,-1.021295 0.82553,-2.526133 1.25406,-3.344084 0.46543,-0.888384 1.508388,-2.216427 2.590303,-3.298341 1.081914,-1.081915 2.409957,-2.124873 3.298341,-2.590303 0.817951,-0.42853 2.322789,-0.992857 3.344084,-1.25406 C 26.23615,25.00964 27.262661,25.000002 75,25.000002 c 47.73734,0 48.76385,0.0096 50.58307,0.474915 1.02129,0.261203 2.52613,0.82553 3.34408,1.25406 0.88839,0.46543 2.21643,1.508388 3.29834,2.590303 1.08192,1.081914 2.12488,2.409957 2.59031,3.298341 0.42852,0.817951 0.99285,2.322789 1.25406,3.344084 0.4177,1.633215 0.47491,2.671865 0.47491,8.622237 v 6.765338 l -15.18164,11.287003 c -8.3499,6.207853 -18.2758,13.588352 -22.057549,16.401109 -3.781751,2.81276 -9.043293,6.72109 -11.692314,8.68519 -2.649024,1.96409 -5.487748,3.90997 -6.308274,4.32417 -0.820529,0.4142 -2.169134,0.91277 -2.996896,1.10794 -0.827765,0.19516 -2.370501,0.34743 -3.428301,0.33837 z m 0.120204,-9.59279 c 0.711864,0 1.494089,-0.19908 2.125432,-0.54092 0.549458,-0.29751 11.983793,-8.708828 25.409632,-18.691822 l 24.41063,-18.150899 -0.0687,-4.327367 c -0.0647,-4.073444 -0.10222,-4.381216 -0.63927,-5.245085 -0.3138,-0.504745 -1.00909,-1.207942 -1.54511,-1.56266 l -0.97457,-0.644942 H 75.017557 26.317125 l -0.917718,0.570531 c -0.504745,0.313791 -1.207942,1.008715 -1.56266,1.544274 -0.632207,0.954517 -0.64626,1.059552 -0.711708,5.319496 l -0.06677,4.345753 24.416788,18.150899 c 13.429235,9.982994 24.862678,18.394312 25.407655,18.691822 0.628319,0.343 1.403007,0.54092 2.117284,0.54092 z"
       id="path1" />
  </g>
</svg>
