<?xml version="1.0" encoding="UTF-8" standalone="no"?>
<!-- Created with Inkscape (http://www.inkscape.org/) -->

<svg
   version="1.1"
   id="svg1"
   width="150"
   height="150"
   viewBox="0 0 150 150"
   xmlns="http://www.w3.org/2000/svg"
   xmlns:svg="http://www.w3.org/2000/svg">
  <defs
     id="defs1" />
  <g
     id="g1">
    <path
       style="fill:#000000;stroke-width:0.218468"
       d="m 100.23995,124.99893 c -1.576355,-0.013 -3.825922,-0.16253 -4.999056,-0.33226 -1.173131,-0.16972 -3.286804,-0.60571 -4.697052,-0.96886 -1.410245,-0.36315 -3.694653,-1.10937 -5.07646,-1.65828 -1.381807,-0.54891 -4.232809,-1.87109 -6.335559,-2.93819 -2.10275,-1.0671 -4.881251,-2.60454 -6.174446,-3.41654 -1.293194,-0.81199 -3.560306,-2.33503 -5.038025,-3.38453 -1.477719,-1.0495 -3.958824,-2.92738 -5.513568,-4.17307 -1.554744,-1.24568 -4.203152,-3.49556 -5.885352,-4.99971 -1.6822,-1.50416 -4.435518,-4.148559 -6.118483,-5.876438 -1.682967,-1.727886 -3.948089,-4.173869 -5.033606,-5.435519 -1.085515,-1.26165 -2.56778,-3.031237 -3.29392,-3.932415 C 41.348282,86.981939 40.016727,85.261507 39.11541,84.059935 38.214093,82.858364 36.788298,80.843001 35.946978,79.581351 35.105657,78.319701 33.870311,76.353493 33.201764,75.212 32.533218,74.070507 31.291695,71.746161 30.442825,70.046787 29.593956,68.347411 28.516683,65.987961 28.048887,64.803566 27.58109,63.619168 26.995544,61.961943 26.747672,61.120843 26.4998,60.279743 26.098542,58.657621 25.855987,57.516129 25.613432,56.374636 25.298219,54.359272 25.155513,53.037544 25.003898,51.633293 24.951626,49.5447 25.029757,48.01279 c 0.07354,-1.441886 0.323048,-3.457249 0.554461,-4.478584 0.231414,-1.021336 0.726114,-2.692613 1.099335,-3.713949 0.37322,-1.021336 1.132943,-2.643457 1.688273,-3.604714 0.55533,-0.961257 1.476645,-2.337603 2.047365,-3.058546 0.570721,-0.720943 1.912694,-2.146444 2.982163,-3.167779 1.069469,-1.021336 2.503172,-2.186768 3.186006,-2.589849 0.682834,-0.40308 1.841278,-0.975128 2.574319,-1.271216 0.733042,-0.296089 2.038485,-0.688215 2.900986,-0.871392 1.062589,-0.225672 2.272534,-0.30065 3.752857,-0.232557 1.659027,0.07631 2.546187,0.239075 3.687169,0.676466 0.826371,0.316786 2.106031,1.006651 2.843691,1.533034 0.868151,0.619499 1.816374,1.601705 2.688427,2.784774 0.740974,1.005242 3.615987,5.022802 6.388917,8.927909 2.77293,3.905107 5.474664,7.953698 6.003853,8.996865 0.529188,1.043169 1.081039,2.46867 1.226335,3.167779 0.146448,0.704654 0.212525,1.952613 0.148276,2.800383 -0.06374,0.8411 -0.311262,2.042728 -0.550042,2.670285 -0.238779,0.627557 -0.853699,1.758126 -1.366488,2.512377 -0.51279,0.75425 -2.012891,2.528257 -3.333562,3.942236 -2.180463,2.33452 -2.380151,2.617101 -2.172087,3.073753 0.126021,0.276584 0.967885,1.479143 1.87081,2.67235 0.902922,1.193208 2.800192,3.447503 4.216152,5.009546 1.415961,1.562043 3.661283,3.90569 4.989605,5.208104 1.328319,1.302414 3.63242,3.443077 5.120221,4.757031 1.487801,1.313953 3.58424,2.977057 4.658755,3.695787 l 1.953662,1.306783 2.503919,-2.349865 c 1.377156,-1.292426 3.200026,-2.811688 4.050821,-3.376139 0.850796,-0.56445 2.144382,-1.228045 2.874636,-1.474656 0.915822,-0.309278 1.889255,-0.448382 3.1377,-0.448382 1.274143,0 2.242323,0.141934 3.270458,0.479442 0.80326,0.263692 2.20625,0.929238 3.11775,1.47899 0.9115,0.54975 5.35998,3.628078 9.88553,6.840728 5.07288,3.601208 8.60871,6.264334 9.22036,6.944636 0.54565,0.6069 1.24925,1.647021 1.56354,2.311391 0.3143,0.66436 0.71028,1.862979 0.87997,2.663599 0.16969,0.80062 0.31023,2.0251 0.31232,2.72107 0.002,0.69597 -0.14612,2.02316 -0.32934,2.94931 -0.20576,1.04008 -0.74193,2.51921 -1.40233,3.86859 -0.58806,1.20157 -1.58993,2.87285 -2.22638,3.71395 -0.63645,0.8411 -1.84087,2.19775 -2.67648,3.01478 -0.83561,0.81703 -2.32165,2.01938 -3.30231,2.67188 -0.98066,0.65251 -2.52626,1.52509 -3.43466,1.93906 -0.90841,0.41398 -2.3259,0.95264 -3.14997,1.19704 -0.82407,0.24439 -2.3714,0.59581 -3.43852,0.78093 -1.1555,0.20045 -3.09937,0.32701 -4.80628,0.31291 z M 99.051175,118.005 c 1.162845,0.0147 2.883275,-0.0781 3.823195,-0.2062 0.93991,-0.12806 2.49541,-0.43038 3.45667,-0.67183 0.96125,-0.24145 2.52525,-0.84942 3.47554,-1.35105 1.07456,-0.56723 2.38969,-1.53154 3.47847,-2.55057 0.96287,-0.90118 2.22717,-2.36674 2.80956,-3.2568 0.58239,-0.89006 1.26636,-2.30133 1.51993,-3.13614 0.3402,-1.12006 0.43045,-1.85504 0.34436,-2.80445 -0.0642,-0.70762 -0.30322,-1.60602 -0.53124,-1.99644 -0.28434,-0.48686 -3.05322,-2.586329 -8.81414,-6.683229 -4.61977,-3.285356 -9.060725,-6.30903 -9.868785,-6.719275 -0.80806,-0.410243 -1.682083,-0.745898 -1.942274,-0.745898 -0.260192,0 -0.924683,0.221198 -1.476644,0.491551 -0.587162,0.287596 -2.244789,1.693738 -3.994998,3.388902 -2.098042,2.032056 -3.338737,3.059033 -4.15435,3.438729 -0.897406,0.417776 -1.512073,0.539678 -2.692191,0.533926 -0.8411,-0.0041 -1.905256,-0.141536 -2.364789,-0.305415 -0.459533,-0.163877 -1.590103,-0.754474 -2.512377,-1.312433 -0.922274,-0.557962 -2.659965,-1.799672 -3.861536,-2.759357 -1.201572,-0.959684 -3.695778,-3.135345 -5.542681,-4.834802 -1.846903,-1.699459 -4.764155,-4.620432 -6.482782,-6.491053 -1.718625,-1.87062 -3.779937,-4.18761 -4.580688,-5.148868 -0.800753,-0.961257 -2.096729,-2.706747 -2.879946,-3.878865 -0.812536,-1.215992 -1.609612,-2.716997 -1.856199,-3.49548 -0.306639,-0.968065 -0.401172,-1.728323 -0.325462,-2.617423 0.05869,-0.689186 0.311544,-1.67229 0.561905,-2.184675 0.25036,-0.512385 1.675384,-2.215156 3.16672,-3.783935 1.491338,-1.56878 3.016379,-3.333037 3.388982,-3.92057 0.402354,-0.634445 0.677462,-1.358855 0.677462,-1.783882 0,-0.3936 -0.233448,-1.234566 -0.518773,-1.868819 -0.285325,-0.634251 -3.098049,-4.790668 -6.250499,-9.236483 -3.152447,-4.445814 -5.991199,-8.366049 -6.308338,-8.711633 -0.317136,-0.345584 -0.969854,-0.810399 -1.450482,-1.032923 -0.51665,-0.2392 -1.365051,-0.404367 -2.075442,-0.404046 -0.660864,3.06e-4 -1.632695,0.09994 -2.159626,0.221414 -0.52693,0.121479 -1.500428,0.486445 -2.163331,0.811036 -0.662901,0.324591 -1.933514,1.270261 -2.823583,2.101488 -0.89007,0.831227 -2.05214,2.119281 -2.582378,2.862344 -0.530239,0.743062 -1.309276,2.079625 -1.731194,2.970138 -0.421918,0.890515 -0.969294,2.405601 -1.216392,3.366858 -0.247097,0.961257 -0.50773,2.681689 -0.579184,3.823182 -0.07265,1.160517 -0.01323,3.086676 0.134775,4.369351 0.14558,1.26165 0.406133,2.982082 0.579005,3.823182 0.172873,0.8411 0.618633,2.463222 0.990578,3.604715 0.371945,1.141492 1.212568,3.269095 1.86805,4.728004 0.655483,1.458909 1.839292,3.818359 2.630688,5.243221 0.791395,1.424863 2.074627,3.573762 2.851627,4.775334 0.777,1.201571 2.058006,3.069469 2.84668,4.150883 0.788675,1.081415 2.222272,2.949312 3.185771,4.150884 0.963498,1.201571 2.638751,3.216934 3.722783,4.478584 1.084029,1.26165 3.595764,3.921965 5.581627,5.911809 1.985866,1.989844 5.085319,4.87788 6.887677,6.41786 1.802357,1.539979 4.751669,3.906309 6.554026,5.258529 1.802357,1.35221 4.112652,2.99891 5.133988,3.65933 1.021335,0.66041 2.925188,1.81396 4.230785,2.56343 1.305597,0.74947 3.714202,1.9997 5.352455,2.77829 1.638253,0.77859 3.666816,1.68964 4.507916,2.02454 0.8411,0.33491 2.36698,0.81795 3.390846,1.07343 1.023866,0.25549 2.449366,0.55012 3.167779,0.65474 0.718413,0.10462 2.257624,0.20221 3.420454,0.21686 z"
       id="path1" />
  </g>
</svg>
