<?xml version="1.0" encoding="UTF-8" standalone="no"?>
<!-- Created with Inkscape (http://www.inkscape.org/) -->

<svg
   version="1.1"
   id="svg1"
   width="150"
   height="150"
   viewBox="0 0 150 150"
   xmlns="http://www.w3.org/2000/svg"
   xmlns:svg="http://www.w3.org/2000/svg">
  <defs
     id="defs1" />
  <g
     id="g1">
    <path
       style="fill:#000000;stroke-width:0.18332"
       d="m 37.215202,124.88884 c -5.00715,-0.9158 -9.342158,-4.41543 -11.150673,-9.00191 -0.852969,-2.16317 -1.001569,-2.95203 -1.01295,-5.37737 -0.01165,-2.48325 0.19569,-3.63886 1.014409,-5.65374 1.115208,-2.74454 1.63845,-3.32292 16.247306,-17.959381 l 14.005153,-14.031614 -0.912274,-0.912274 -0.912271,-0.912273 -1.039008,0.227738 c -1.851392,0.405802 -4.913857,0.659857 -6.41638,0.53229 -6.202547,-0.526609 -11.10516,-2.751859 -15.254287,-6.923779 -2.016095,-2.02717 -3.227768,-3.710745 -4.451576,-6.185303 -2.959525,-5.984204 -3.14428,-13.048831 -0.505847,-19.342455 0.948238,-2.261891 1.460346,-2.947804 2.496216,-3.343406 1.773595,-0.677342 1.680597,-0.743491 8.525073,6.063844 5.318391,5.28953 6.259673,6.14479 6.892815,6.262879 2.306523,0.430196 4.003346,-1.266627 3.57315,-3.57315 -0.118089,-0.633142 -0.973349,-1.574424 -6.262879,-6.892815 -6.807335,-6.844476 -6.741186,-6.751478 -6.063844,-8.525073 0.395602,-1.03587 1.081515,-1.547978 3.343406,-2.496216 9.018565,-3.780792 19.334523,-1.635169 26.030675,5.414138 5.349411,5.631537 7.559141,13.592312 5.888544,21.214075 l -0.227763,1.039127 2.915705,2.920574 c 1.603638,1.606316 3.005206,2.920576 3.114596,2.920576 0.109391,0 3.760629,-3.562554 8.113864,-7.916784 l 7.914975,-7.916785 -1.092568,-1.126981 c -1.548156,-1.596921 -1.735721,-1.935532 -1.735721,-3.133471 0,-0.936726 0.07252,-1.114173 0.733278,-1.794174 0.747511,-0.769284 20.700394,-12.848764 21.999594,-13.318562 0.41158,-0.148827 0.96212,-0.187644 1.43341,-0.101064 0.66848,0.122805 1.35168,0.724492 5.40615,4.76109 2.55253,2.541287 4.78431,4.922587 4.9595,5.291778 0.20028,0.42205 0.28182,0.944995 0.21964,1.408586 -0.1313,0.978907 -12.37064,21.477851 -13.44992,22.526466 -0.68006,0.660744 -0.85754,0.733278 -1.79425,0.733278 -1.19794,0 -1.53656,-0.187567 -3.13348,-1.735723 l -1.12698,-1.092568 -7.916782,7.914975 c -4.354231,4.353235 -7.916783,8.004474 -7.916783,8.113864 0,0.109391 1.309954,1.506663 2.911012,3.105051 l 2.911013,2.90616 1.830853,-0.350522 c 2.381205,-0.455888 6.302617,-0.462301 8.630767,-0.01412 13.4201,2.583475 21.76497,15.799767 18.28721,28.962624 -0.48569,1.83827 -1.5118,4.35913 -2.19395,5.38994 -0.60859,0.91965 -1.90088,1.46693 -2.98845,1.2656 -0.64475,-0.11936 -1.54697,-0.93819 -6.90126,-6.26342 -5.31839,-5.28953 -6.25967,-6.14479 -6.89281,-6.26288 -2.30652,-0.4302 -4.00335,1.26663 -3.57315,3.57315 0.11805,0.63291 0.97455,1.57637 6.25749,6.89281 6.45878,6.49974 6.56297,6.63413 6.25288,8.06607 -0.23706,1.09471 -0.82397,1.67731 -2.49862,2.48026 -1.87653,0.89975 -3.51507,1.45155 -5.69344,1.91733 -1.91667,0.40984 -6.605063,0.45777 -8.584678,0.0878 -4.414623,-0.82508 -8.558403,-2.92932 -11.830765,-6.00772 -6.012118,-5.65577 -8.614849,-14.08473 -6.839725,-22.150499 L 78.979467,95.525843 78.067782,94.61416 77.156099,93.702477 63.026125,107.79387 c -15.520895,15.47852 -15.330263,15.31202 -18.896205,16.50462 -1.47994,0.49496 -2.233419,0.62721 -3.910817,0.68642 -1.142734,0.0403 -2.49449,-0.003 -3.003901,-0.0961 z m 5.377257,-6.26378 c 0.585895,-0.21921 1.45197,-0.65723 1.92461,-0.97339 0.472642,-0.31616 7.062678,-6.78214 14.644527,-14.36886 L 72.946774,89.488776 66.737378,83.280422 60.527981,77.072066 46.46037,91.15101 c -13.129657,13.14023 -14.108138,14.16593 -14.675451,15.38363 -1.209063,2.59517 -1.219992,5.14146 -0.03295,7.67811 1.070221,2.28701 3.594748,4.26757 6.11731,4.79921 1.234936,0.26027 3.48641,0.0758 4.723184,-0.3869 z m -0.981992,-8.6033 c -1.28922,-0.78605 -1.771561,-2.41884 -1.120099,-3.7917 0.450235,-0.9488 18.84347,-19.226337 19.514366,-19.391616 0.302155,-0.07444 0.951066,-0.09007 1.442023,-0.03473 1.699807,0.191593 2.775862,1.952243 2.321167,3.797918 -0.165279,0.670896 -18.442819,19.064128 -19.391619,19.514368 -0.85979,0.408 -2.006165,0.36894 -2.765838,-0.0942 z m 62.525983,8.98493 c 0.69906,-0.11081 1.43404,-0.25093 1.63329,-0.31138 0.28909,-0.0877 -0.52565,-1.00447 -4.03383,-4.53891 -3.505678,-3.53193 -4.514243,-4.66665 -4.979419,-5.60225 -1.97606,-3.97446 -1.006232,-8.26489 2.493568,-11.031322 1.843681,-1.457347 4.786301,-2.116133 7.058591,-1.580255 2.32777,0.548963 3.12132,1.137951 7.82972,5.811367 3.53444,3.50818 4.45121,4.32292 4.53891,4.03382 0.54449,-1.79475 0.64598,-4.91375 0.23448,-7.206197 -1.19958,-6.68278 -5.89167,-11.839664 -12.57887,-13.824905 -1.31007,-0.388924 -1.94303,-0.448886 -4.73847,-0.448886 -2.776232,0 -3.432801,0.06134 -4.705456,0.439621 -1.624216,0.482774 -2.717464,0.555291 -3.373462,0.223769 -0.606755,-0.306635 -28.062541,-27.733648 -28.402058,-28.372293 -0.396042,-0.744968 -0.349538,-1.757684 0.159257,-3.468087 0.382463,-1.285725 0.439191,-1.913492 0.434035,-4.803224 -0.0064,-3.601922 -0.142471,-4.334871 -1.300314,-7.005617 -2.103337,-4.851686 -6.380722,-8.51617 -11.599453,-9.93738 -1.91124,-0.520487 -6.201611,-0.625105 -7.886765,-0.192314 l -1.042834,0.267826 4.391917,4.425154 c 4.577718,4.61236 5.154137,5.371185 5.738039,7.553808 0.50756,1.89726 0.218673,4.336239 -0.735038,6.205668 -0.574911,1.126917 -2.328691,2.917064 -3.462211,3.534004 -1.924195,1.047277 -4.408524,1.376488 -6.38907,0.846647 -2.182623,-0.583902 -2.941448,-1.160322 -7.553808,-5.738039 l -4.425154,-4.391917 -0.267827,1.042834 c -0.43279,1.685154 -0.328172,5.975525 0.192314,7.886765 1.396029,5.126261 5.033983,9.432689 9.721434,11.507746 2.748256,1.216608 3.642124,1.389117 7.221564,1.393698 2.886632,0.0037 3.518878,-0.05366 4.803224,-0.435712 1.710403,-0.508795 2.723119,-0.555299 3.468087,-0.159257 0.638645,0.339517 28.065658,27.795303 28.372293,28.402058 0.331522,0.655998 0.259005,1.749246 -0.223769,3.373461 -0.378278,1.272656 -0.439621,1.929225 -0.439621,4.705459 0,2.79544 0.05996,3.4284 0.448886,4.73847 2.567064,8.64704 10.800238,14.01863 19.39782,12.65577 z m -10.703743,-58.215513 7.968623,-7.970402 -2.105333,-2.098805 -2.105333,-2.098806 -8.012938,8.014727 -8.012937,8.014724 2.047489,2.054483 c 1.126119,1.129964 2.09346,2.054481 2.149647,2.054481 0.05619,0 3.68804,-3.586681 8.070782,-7.970402 z m 20.376693,-16.458566 4.62697,-7.710222 -2.51902,-2.519017 -2.51901,-2.519017 -7.75895,4.655731 -7.75895,4.655731 5.61237,5.614877 c 3.08681,3.088181 5.62976,5.596261 5.651,5.573509 0.0212,-0.02275 2.12076,-3.51097 4.66559,-7.751592 z"
       id="path1" />
  </g>
</svg>
