<?xml version="1.0" encoding="UTF-8" standalone="no"?>
<!-- Created with Inkscape (http://www.inkscape.org/) -->

<svg
   version="1.1"
   id="svg1"
   width="150"
   height="150"
   viewBox="0 0 150 150"
   xmlns="http://www.w3.org/2000/svg"
   xmlns:svg="http://www.w3.org/2000/svg">
  <defs
     id="defs1" />
  <g
     id="g1">
    <path
       style="fill:#000000;stroke-width:0.195627"
       d="m 47.386553,124.76711 c -6.440437,-1.31098 -11.192308,-6.11969 -12.439045,-12.58782 -0.2271,-1.17821 -0.276694,-4.94408 -0.276694,-21.010521 V 71.593754 l -1.930855,1.873619 c -1.510427,1.465654 -2.116982,1.923739 -2.785657,2.103794 -1.744444,0.469731 -3.472482,-0.164156 -4.442207,-1.629508 -0.437129,-0.660548 -0.524805,-1.01024 -0.524805,-2.093181 0,-1.076473 0.08851,-1.433901 0.514506,-2.077617 0.282978,-0.427608 9.945649,-10.14872 21.472602,-21.602469 15.805757,-15.70538 21.258047,-21.007495 22.178197,-21.567337 1.893475,-1.152035 3.579836,-1.601059 6.012956,-1.601059 1.57441,0 2.373862,0.100839 3.423468,0.431822 2.923442,0.921877 2.331067,0.372168 24.947841,23.150945 19.12818,19.265203 21.10994,21.319716 21.32107,22.103798 0.829,3.078646 -1.79817,5.712405 -4.87238,4.884606 -0.66768,-0.179787 -1.2735,-0.636456 -2.76748,-2.08615 l -1.91267,-1.855977 -0.0671,2.8974 c -0.0612,2.644842 -0.10756,2.962493 -0.53134,3.64417 -0.25534,0.410723 -0.82112,0.982931 -1.25729,1.271574 -0.66055,0.437128 -1.01024,0.524804 -2.09318,0.524804 -1.08294,0 -1.43264,-0.08768 -2.09318,-0.524804 -0.43617,-0.288643 -1.00195,-0.860851 -1.25729,-1.271574 -0.46057,-0.740848 -0.46503,-0.802134 -0.56207,-7.729688 L 107.34615,63.458006 92.24206,48.319578 C 76.506058,32.547804 76.695503,32.720588 75.142854,32.72422 73.493533,32.72812 73.904152,32.356006 57.800201,48.438807 l -15.311271,15.291161 0.05238,23.76865 0.05238,23.768652 0.619065,1.30671 c 0.861544,1.81853 1.970703,2.95151 3.75092,3.83148 l 1.478056,0.73061 19.377428,0.0978 19.37743,0.0978 0.74677,0.46425 c 0.410722,0.25534 0.98293,0.82112 1.271574,1.25729 0.437128,0.66055 0.524804,1.01024 0.524804,2.09318 0,1.08294 -0.08768,1.43264 -0.524804,2.09318 -0.288644,0.43617 -0.860852,1.00195 -1.271574,1.25729 l -0.74677,0.46425 -19.269235,0.0324 c -15.314115,0.0258 -19.530232,-0.0207 -20.540808,-0.22643 z m 51.686819,0.0824 c -0.932154,-0.28529 -2.129507,-1.56609 -2.398725,-2.56589 -0.468318,-1.7392 0.227508,-3.567 1.708411,-4.48766 1.109602,-0.68982 3.020152,-0.66168 4.111522,0.0606 1.22114,0.80811 1.72154,1.7644 1.72154,3.28992 0,1.50587 -0.49938,2.48113 -1.66568,3.25295 -0.83904,0.55525 -2.45155,0.764 -3.477068,0.45013 z M 88.509527,113.29616 c -0.353836,-0.10205 -0.987424,-0.52962 -1.407974,-0.95017 -1.306691,-1.3067 -1.529625,-3.36033 -0.528936,-4.87247 1.319651,-1.99413 6.250097,-5.00282 9.720623,-5.93178 2.299103,-0.61541 6.21577,-0.61036 8.50976,0.011 3.39824,0.92041 8.31959,3.95151 9.62947,5.93088 0.74107,1.11982 0.77719,3.01592 0.0789,4.1392 -0.91158,1.46631 -2.7483,2.17677 -4.44582,1.71968 -0.45504,-0.12253 -1.25461,-0.61452 -1.86086,-1.14502 -2.31323,-2.0242 -4.68948,-3.132 -7.11856,-3.31867 -2.551716,-0.1961 -5.56779,0.9618 -8.007328,3.07408 -1.733429,1.50088 -2.867127,1.83418 -4.569242,1.3433 z m -9.976964,-10.56385 c -0.924244,-0.26654 -2.127758,-1.54822 -2.398724,-2.55452 -0.283197,-1.051713 -0.113781,-2.358183 0.417213,-3.217346 0.586325,-0.948694 3.658928,-3.590461 6.033559,-5.187542 9.86749,-6.636477 21.750379,-7.423202 32.265699,-2.136203 3.34202,1.680334 8.59636,5.7103 9.64571,7.398044 0.6819,1.096746 0.64997,3.013697 -0.0683,4.099037 -0.64773,0.97878 -1.6011,1.58743 -2.72858,1.74197 -1.48589,0.20366 -2.30932,-0.16666 -4.20822,-1.89258 -5.38266,-4.892348 -11.52098,-7.267655 -17.969873,-6.953686 -5.96573,0.290445 -11.122413,2.531255 -16.011198,6.957586 -2.11981,1.91929 -3.13704,2.27596 -4.97732,1.74524 z"
       id="path1" />
  </g>
</svg>
