<?xml version="1.0" encoding="UTF-8" standalone="no"?>
<!-- Created with Inkscape (http://www.inkscape.org/) -->

<svg
   version="1.1"
   id="svg1"
   width="150"
   height="150"
   viewBox="0 0 150 150"
   xmlns="http://www.w3.org/2000/svg"
   xmlns:svg="http://www.w3.org/2000/svg">
  <defs
     id="defs1" />
  <g
     id="g1">
    <path
       style="fill:#000000;stroke-width:0.146674"
       d="M 73.746131,124.80467 C 73.423449,124.69743 62.59892,119.31047 49.691623,112.83365 27.03931,101.46682 26.203421,101.02814 25.637113,100.20961 c -0.511798,-0.739743 -0.586695,-1.018456 -0.586695,-2.183262 0,-1.164804 0.0749,-1.443516 0.586695,-2.18326 0.550589,-0.795811 1.101157,-1.10676 8.94627,-5.052648 4.597766,-2.312558 8.359573,-4.248652 8.359573,-4.302433 0,-0.05378 -3.761807,-1.989874 -8.359573,-4.302432 -7.845113,-3.94589 -8.395681,-4.256837 -8.94627,-5.052648 -0.511798,-0.739744 -0.586695,-1.018456 -0.586695,-2.183262 0,-1.164805 0.0749,-1.443517 0.586695,-2.183261 0.550589,-0.795811 1.101157,-1.106759 8.94627,-5.052648 4.597766,-2.312558 8.359573,-4.248652 8.359573,-4.302433 0,-0.05378 -3.761807,-1.989874 -8.359573,-4.302432 -7.845113,-3.94589 -8.395681,-4.256837 -8.94627,-5.052648 -0.511798,-0.739744 -0.586695,-1.018456 -0.586695,-2.18326 0,-1.164806 0.0749,-1.443519 0.586695,-2.183262 0.566449,-0.818735 1.406678,-1.25938 24.347858,-12.768859 L 73.746131,25 l 1.271174,2.33e-4 1.271172,2.33e-4 23.712333,11.873521 c 27.29115,13.665544 24.9715,12.25506 24.85322,15.112231 -0.1065,2.572766 0.21577,2.328489 -9.46319,7.172969 -4.56508,2.284895 -8.30014,4.198357 -8.30014,4.252136 0,0.05378 3.74126,1.970346 8.31391,4.259034 7.63381,3.820849 8.36303,4.228791 8.91437,4.98691 0.57102,0.785181 0.59725,0.903121 0.53505,2.405634 -0.1065,2.572765 0.21577,2.32849 -9.46319,7.17297 -4.56508,2.284895 -8.30014,4.198356 -8.30014,4.252136 0,0.05378 3.74126,1.970346 8.31391,4.259032 7.63381,3.820849 8.36303,4.228792 8.91437,4.986911 0.57102,0.785181 0.59725,0.903122 0.53505,2.405635 -0.11248,2.717205 2.09616,1.395899 -24.870357,14.878605 -25.227383,12.61317 -24.599144,12.33095 -26.237542,11.78648 z M 93.6935,107.36506 c 10.16465,-5.08198 18.48118,-9.285161 18.48118,-9.340401 0,-0.05524 -3.16776,-1.682358 -7.03945,-3.615817 l -7.039446,-3.515378 -10.962188,5.473203 c -10.658359,5.321503 -10.994365,5.473203 -12.123141,5.473203 -1.129021,0 -1.462213,-0.15056 -12.114616,-5.474039 l -10.953664,-5.474039 -7.041122,3.516214 c -3.872616,1.933918 -7.04112,3.561412 -7.04112,3.616654 0,0.138393 36.804491,18.55586 37.108207,18.56945 0.134299,0.006 8.560712,-4.14706 18.72536,-9.22905 z m 0,-23.076678 c 10.16465,-5.081983 18.48118,-9.285167 18.48118,-9.340407 0,-0.05524 -3.16776,-1.682358 -7.03945,-3.615816 l -7.039446,-3.515378 -10.962188,5.473202 c -10.658359,5.321505 -10.994365,5.473201 -12.123141,5.473201 -1.129021,0 -1.462213,-0.150553 -12.114616,-5.474037 l -10.953664,-5.474039 -7.041122,3.516215 c -3.872616,1.933917 -7.04112,3.561412 -7.04112,3.616654 0,0.138392 36.804491,18.555858 37.108207,18.569448 0.134299,0.006 8.560712,-4.147061 18.72536,-9.229043 z m 0,-23.076684 c 10.16465,-5.081983 18.48118,-9.284559 18.48118,-9.339057 0,-0.0545 -8.36041,-4.278552 -18.578689,-9.386785 L 75.017305,33.19816 56.438619,42.485856 c -10.218277,5.108233 -18.578686,9.332287 -18.578686,9.386786 0,0.137505 36.806414,18.554596 37.108207,18.568099 0.134299,0.006 8.560712,-4.147059 18.72536,-9.229043 z"
       id="path1" />
  </g>
</svg>
